# xmcd
#
# Track frame offsets:
#	150
#	15409
#	28085
#	42252
#	55606
#	69632
#	84076
#	100949
#	116079
#	128133
#	140374
#	152863
#	167968
#	183456
#
# Disc length: 2611 seconds
# Revision: 1
# Processed by: cddbd v1.5.2PL0 Copyright (c) Steve Scherf et al.
# Submitted via: dBpowerAMP V12.0
#
DISCID=b50a310e
DTITLE=John Lee Hooker - The Very Best of...
DYEAR=1900
DGENRE=Blues
TTITLE0=Anybody Seen My Baby
TTITLE1=Bumble Bee Blues
TTITLE2=Catfish
TTITLE3=Dirty Ground Hog Blues
TTITLE4=Dreamin´ Blues
TTITLE5=Four Woman In My Live
TTITLE6=Goin´ Mad Blues
TTITLE7=Graveyard Blues
TTITLE8=Ground Hog Blues
TTITLE9=High Priced Woman
TTITLE10=I Love To Boogie
TTITLE11=Just Me and My Telephone
TTITLE12=Landing Blues
TTITLE13=Leave My Wive Alone
EXTD=
EXTT0=
EXTT1=
EXTT2=
EXTT3=
EXTT4=
EXTT5=
EXTT6=
EXTT7=
EXTT8=
EXTT9=
EXTT10=
EXTT11=
EXTT12=
EXTT13=
PLAYORDER=
